#!OML:ASF E:\id_vita\Project 1\Capture day 1\Session 1\Female.ASF
:FULLY-SPECIFIED
:DEGREES
1096
root 22.3646 16.1579 1.57538 175.009 83.8722 161.585
lowerback -14.1432 -2.53509 -7.12195
upperback -4.13504 -2.20757 1.20658
thorax 3.85662 -1.03083 4.925
lowerneck 5.59483 -1.0163 -5.25088
upperneck 3.61133 -1.64158 7.41877
head 0.285098 -0.855751 3.33846
rclavicle -4.29126e-014 -1.81888e-014
rhumerus -56.9684 -33.8409 -50.728
rradius 16.6042
rwrist 29.0033
rhand -14.5996 6.40062
rfingers 7.12502
rthumb 11.5509 -23.2611
lclavicle -4.29126e-014 -1.81888e-014
lhumerus -15.2897 5.52511 90.6946
lradius 31.0753
lwrist -19.6939
lhand -10.8907 22.1336
lfingers 7.12502
lthumb 15.1258 51.5609
rfemur -35.2696 8.57338 15.2718
rtibia 1.27222e-014
rfoot -1.16473 -8.0078
rtoes -5.15828
lfemur 2.0034 -8.1991 -25.5779
ltibia 19.7978
lfoot -22.0104 -2.79526
ltoes -5.25671
1097
root 22.5325 16.1438 1.52701 175.5 84.0172 162.309
lowerback -13.4683 -2.3201 -6.17103
upperback -4.36813 -2.09725 1.03773
thorax 3.19518 -0.946093 4.2425
lowerneck 5.48947 -1.09904 -5.27524
upperneck 3.96552 -1.76034 7.36785
head 0.425017 -0.908798 3.32495
rclavicle -3.34269e-014 -7.25564e-015
rhumerus -58.0191 -34.7124 -49.0709
rradius 16.3447
rwrist 30.2172
rhand -14.5635 5.95574
rfingers 7.12502
rthumb 11.5857 -23.704
lclavicle -3.34269e-014 -7.25564e-015
lhumerus -15.8568 5.97395 90.6877
lradius 30.8394
lwrist -19.9331
lhand -11.1963 21.819
lfingers 7.12502
lthumb 14.8314 51.2682
rfemur -34.5685 8.90121 15.302
rtibia 1.11319e-013
rfoot 0.39239 -7.39718
rtoes -8.47613
lfemur 2.87315 -8.11176 -25.733
ltibia 20.1577
lfoot -21.0948 -3.74514
ltoes -3.4584
1098
root 22.7834 16.1254 1.56951 175.294 84.1186 162.045
lowerback -14.0701 -2.38666 -6.76139
upperback -4.41256 -2.05751 1.13911
thorax 3.48976 -0.929358 4.68049
lowerneck 4.96836 -1.21554 -5.36472
upperneck 4.55619 -1.92341 7.3697
head 0.717815 -0.97598 3.33904
rclavicle 1.23246e-014 -1.10325e-014
rhumerus -59.0003 -35.5295 -47.5758
rradius 16.161
rwrist 31.0768
rhand -14.6583 5.63377
rfingers 7.12502
rthumb 11.4943 -24.0311
lclavicle 1.23246e-014 -1.10325e-014
lhumerus -16.4277 6.34141 90.723
lradius 30.6647
lwrist -20.3569
lhand -10.9761 21.8079
lfingers 7.12502
lthumb 15.0435 51.2414
rfemur -33.8477 9.44435 15.5647
rtibia 3.81667e-014
rfoot 2.07962 -7.10928
rtoes -10.1617
lfemur 3.39954 -7.63769 -25.3414
ltibia 20.4561
lfoot -20.1943 -5.52354
ltoes -1.50206
1099
root 23.0237 16.122 1.59006 178.735 84.1773 165.62
lowerback -14.3966 -2.4482 -6.61727
upperback -4.56468 -2.13227 1.26869
thorax 3.51543 -0.957176 4.71848
lowerneck 5.48316 -1.19767 -5.39247
upperneck 4.52628 -1.91322 7.41183
head 0.618625 -0.977938 3.36345
rclavicle -9.29318e-015 3.27995e-015
rhumerus -59.9362 -35.8956 -46.3533
rradius 15.9486
rwrist 31.6345
rhand -14.7402 5.45557
rfingers 7.12502
rthumb 11.4153 -24.2137
lclavicle -9.29318e-015 3.27995e-015
lhumerus -17.4004 6.7917 90.5427
lradius 30.4931
lwrist -20.6157
lhand -11.0354 21.7046
lfingers 7.12502
lthumb 14.9864 51.1423
rfemur -33.4531 9.8954 16.1825
rtibia 0.840701
rfoot 0.905084 -8.78846
rtoes -0.75599
lfemur 4.20722 -7.2229 -24.651
ltibia 20.6332
lfoot -19.0904 -6.97374
ltoes -0.502214
1100
root 23.2534 16.1294 1.59319 174.993 84.1435 161.546
lowerback -15.202 -2.55038 -6.98537
upperback -4.75342 -2.12761 1.12085
thorax 3.75397 -0.946968 4.75772
lowerneck 6.1112 -1.205 -5.41421
upperneck 4.29413 -1.93406 7.47102
head 0.437163 -0.999891 3.39506
rclavicle -1.043e-014 1.04362e-014
rhumerus -60.9183 -36.4894 -45.0755
rradius 15.8356
rwrist 32.2095
rhand -14.7108 5.22769
rfingers 7.12502
rthumb 11.4436 -24.44
lclavicle -1.043e-014 1.04362e-014
lhumerus -18.2168 7.11009 90.3972
lradius 30.1386
lwrist -20.7746
lhand -11.3344 21.6032
lfingers 7.12502
lthumb 14.6984 51.0621
rfemur -36.8216 10.198 15.7408
rtibia 7.95386
rfoot 2.75467 -8.28912
rtoes -12.9825
lfemur 4.46564 -7.01992 -24.8989
ltibia 20.809
lfoot -17.4536 -8.14693
ltoes -0.178434
1101
root 23.4827 16.1386 1.59472 172.152 84.0729 158.43
lowerback -15.9023 -2.6452 -7.24628
upperback -4.86653 -2.13506 0.990342
thorax 4.01329 -0.948061 4.75297
lowerneck 6.2826 -1.18969 -5.42242
upperneck 4.25137 -1.91773 7.56958
head 0.393518 -0.994307 3.43272
rclavicle -1.2129e-014 -1.35174e-014
rhumerus -61.351 -36.7086 -44.8019
rradius 16.0417
rwrist 31.9179
rhand -14.6504 4.61765
rfingers 7.12502
rthumb 11.5019 -25.0468
lclavicle -1.2129e-014 -1.35174e-014
lhumerus -18.9413 7.58404 90.2264
lradius 29.7996
lwrist -21.1165
lhand -11.3359 21.5609
lfingers 7.12502
lthumb 14.6969 51.0199
rfemur -38.5004 10.38 15.3067
rtibia 11.6804
rfoot 3.37139 -8.8088
rtoes -12.3892
lfemur 4.62942 -6.79081 -25.0483
ltibia 21.0712
lfoot -15.5252 -9.42581
ltoes 0.247447
1102
root 23.7135 16.1477 1.59343 170.379 83.9996 156.448
lowerback -16.4479 -2.68696 -7.37428
upperback -4.94709 -2.11063 0.945748
thorax 4.21798 -0.934484 4.77365
lowerneck 5.98447 -1.17537 -5.54581
upperneck 4.50023 -1.90561 7.57638
head 0.525973 -0.982553 3.45517
rclavicle 1.32378e-014 1.80894e-014
rhumerus -61.3918 -36.6171 -44.9964
rradius 16.3455
rwrist 31.0187
rhand -14.5644 4.17653
rfingers 7.12502
rthumb 11.5849 -25.4833
lclavicle 1.32378e-014 1.80894e-014
lhumerus -19.5614 8.49492 90.1767
lradius 29.2811
lwrist -21.9771
lhand -11.4282 21.0924
lfingers 7.12502
lthumb 14.6079 50.5579
rfemur -39.4486 9.40905 15.8775
rtibia 14.7237
rfoot 3.03021 -7.77942
rtoes -11.1299
lfemur 4.65929 -6.44967 -25.0557
ltibia 21.5872
lfoot -13.4891 -10.7926
ltoes 1.0933
1103
root 23.9397 16.1601 1.59459 171.604 83.9314 157.539
lowerback -16.8853 -2.77074 -7.26885
upperback -5.07378 -2.19448 1.00516
thorax 4.32658 -0.968822 4.75295
lowerneck 6.09664 -1.08999 -5.60258
upperneck 4.53231 -1.79836 7.54258
head 0.509173 -0.931026 3.45412
rclavicle 3.76448e-014 1.50082e-014
rhumerus -61.3469 -36.314 -45.377
rradius 16.6229
rwrist 30.0113
rhand -14.4821 4.05371
rfingers 7.12502
rthumb 11.6643 -25.6016
lclavicle 3.76448e-014 1.50082e-014
lhumerus -20.2224 9.66912 90.0014
lradius 28.5858
lwrist -22.6029
lhand -11.5296 21.104
lfingers 7.12502
lthumb 14.5103 50.5766
rfemur -39.8646 8.56818 16.7016
rtibia 17.0897
rfoot 2.61244 -6.70433
rtoes -9.62589
lfemur 4.4737 -5.82054 -24.6478
ltibia 22.6382
lfoot -11.6571 -12.1481
ltoes 0.110136
1104
root 24.1543 16.1766 1.5986 175.228 83.8618 161.108
lowerback -17.2215 -2.85853 -6.94828
upperback -5.15584 -2.33581 1.11716
thorax 4.43111 -1.03412 4.65441
lowerneck 5.75071 -1.20338 -5.30311
upperneck 4.9347 -1.92784 7.14027
head 0.70027 -0.981727 3.25426
rclavicle -7.41715e-015 -3.08116e-015
rhumerus -61.139 -36.1181 -45.9116
rradius 16.8588
rwrist 29.0909
rhand -14.4593 3.66753
rfingers 7.12502
rthumb 11.6862 -25.9865
lclavicle -7.41715e-015 -3.08116e-015
lhumerus -20.8412 11.0424 89.6337
lradius 27.5248
lwrist -23.504
lhand -11.7946 21.0046
lfingers 7.12502
lthumb 14.2549 50.4954
rfemur -40.035 8.05629 17.5595
rtibia 18.949
rfoot 2.36211 -5.84916
rtoes -8.00435
lfemur 4.12395 -4.92273 -23.8811
ltibia 24.1657
lfoot -10.0572 -13.4951
ltoes -2.59679
1105
root 24.3655 16.1934 1.60093 180.077 83.8369 166.161
lowerback -17.2481 -2.90082 -6.45265
upperback -5.17139 -2.48535 1.31228
thorax 4.43946 -1.10626 4.5485
lowerneck 6.33033 -0.989779 -5.48921
upperneck 4.46092 -1.65973 7.30792
head 0.432301 -0.864756 3.35092
rclavicle 3.13086e-015 2.5842e-015
rhumerus -60.9528 -36.2154 -45.98
rradius 16.8627
rwrist 28.7561
rhand -14.3756 3.32922
rfingers 7.12502
rthumb 11.7669 -26.3202
lclavicle 3.13086e-015 2.5842e-015
lhumerus -21.6612 12.636 89.1895
lradius 26.5934
lwrist -24.6374
lhand -11.9165 20.958
lfingers 7.12502
lthumb 14.1375 50.457
rfemur -39.7433 7.56808 18.6588
rtibia 20.2949
rfoot 1.9135 -4.71194
rtoes -6.92079
lfemur 3.72976 -4.01958 -22.9215
ltibia 26.2093
lfoot -8.08751 -14.8429
ltoes -3.47292
1106
root 24.5806 16.2063 1.60159 184.627 83.9838 171.198
lowerback -16.9864 -2.81393 -5.93142
upperback -5.16884 -2.49198 1.48752
thorax 4.29292 -1.10673 4.44381
lowerneck 6.83759 -0.846522 -5.69213
upperneck 4.12697 -1.48942 7.53813
head 0.22784 -0.793944 3.47358
rclavicle -9.93923e-016 -4.37326e-015
rhumerus -60.9659 -36.4208 -45.7587
rradius 16.8041
rwrist 28.61
rhand -14.2231 3.31673
rfingers 7.12502
rthumb 11.914 -26.3243
lclavicle -9.93923e-016 -4.37326e-015
lhumerus -22.6686 14.409 88.6101
lradius 25.7205
lwrist -26.3071
lhand -11.8847 20.5621
lfingers 7.12502
lthumb 14.1681 50.059
rfemur -38.9319 7.06856 19.9383
rtibia 21.2455
rfoot 1.20883 -3.39999
rtoes -6.0899
lfemur 3.43665 -3.06673 -21.9975
ltibia 28.519
lfoot -5.47848 -15.9913
ltoes -2.14852
